<?xml version="1.0" encoding="UTF-8" standalone="no"?>
<!DOCTYPE svg PUBLIC "-//W3C//DTD SVG 1.1//EN" "http://www.w3.org/Graphics/SVG/1.1/DTD/svg11.dtd">
<svg xmlns="http://www.w3.org/2000/svg" version="1.1" viewBox="0.00 0.00 1400.00 1400.00">
<path fill="#ffffff" d="
  M 1267.01 819.35
  C 1285.61 824.20 1299.90 829.54 1322.59 838.34
  C 1326.63 839.91 1329.74 840.65 1333.09 838.11
  Q 1337.34 834.88 1336.65 829.38
  C 1336.01 824.32 1332.46 822.95 1327.31 820.81
  Q 1297.91 808.62 1268.22 800.83
  A 1.09 1.08 7.9 0 1 1267.41 799.77
  C 1267.54 778.63 1264.84 756.77 1260.36 735.02
  Q 1256.22 714.88 1254.56 707.21
  Q 1248.04 677.04 1236.91 645.82
  C 1222.94 606.62 1209.25 574.21 1191.21 541.72
  A 1.03 1.02 40.4 0 1 1191.14 540.87
  Q 1220.78 458.78 1232.65 372.19
  Q 1237.58 336.23 1237.66 300.50
  Q 1237.74 264.64 1231.22 227.01
  C 1226.28 198.50 1220.90 172.35 1211.40 145.64
  C 1207.63 135.05 1202.38 125.53 1191.90 120.89
  C 1187.23 118.82 1181.44 118.63 1176.26 118.61
  C 1164.17 118.55 1153.11 119.48 1140.93 121.51
  Q 1107.53 127.08 1069.09 142.30
  C 1026.80 159.05 985.44 182.88 948.91 210.67
  Q 932.98 222.79 915.48 237.11
  A 1.26 1.26 0.0 0 1 914.00 237.19
  C 873.30 211.16 829.86 190.33 782.93 178.12
  C 743.95 167.98 705.67 164.68 667.23 169.51
  Q 641.58 172.73 613.18 180.94
  Q 570.92 193.15 529.82 215.33
  Q 513.60 224.09 492.01 237.27
  A 1.32 1.31 49.3 0 1 490.47 237.15
  Q 466.36 216.52 440.34 198.18
  Q 412.71 178.70 376.97 160.30
  C 347.99 145.39 316.99 133.28 284.98 125.56
  Q 264.57 120.64 244.06 118.88
  Q 238.74 118.43 225.68 118.62
  Q 211.27 118.84 202.86 129.84
  Q 199.13 134.72 198.06 137.35
  Q 188.62 160.47 183.32 183.54
  Q 176.62 212.65 172.60 242.47
  Q 168.26 274.65 168.52 302.21
  C 168.82 333.84 171.57 364.33 177.24 396.42
  Q 181.69 421.57 183.85 431.68
  Q 195.72 487.20 215.08 541.32
  A 1.50 1.47 50.7 0 1 214.97 542.54
  Q 205.26 559.64 195.73 580.47
  Q 178.57 618.01 165.72 657.46
  Q 155.64 688.43 149.60 717.05
  C 143.31 746.90 138.88 771.77 138.97 799.82
  A 1.17 1.16 82.4 0 1 138.10 800.96
  Q 107.07 809.13 75.21 822.47
  C 68.81 825.15 67.58 833.64 73.08 837.88
  Q 76.97 840.87 81.10 839.32
  C 102.35 831.33 119.09 824.78 138.96 819.75
  A 0.51 0.50 -11.0 0 1 139.58 820.16
  Q 142.59 840.29 147.87 860.56
  C 152.98 880.21 159.96 897.33 169.13 914.88
  Q 173.60 923.43 178.32 931.61
  A 1.42 1.42 0.0 0 1 178.01 933.41
  Q 177.25 934.05 176.23 934.71
  C 158.39 945.99 136.88 961.31 124.57 970.81
  C 114.92 978.25 125.40 992.54 135.23 985.19
  Q 160.88 966.03 188.65 948.05
  A 0.61 0.60 56.0 0 1 189.48 948.22
  C 206.15 972.26 226.41 992.49 248.49 1012.29
  Q 251.34 1014.84 249.20 1017.94
  C 221.28 1058.44 225.07 1105.37 263.33 1137.77
  A 2.88 2.86 18.3 0 1 264.35 1139.78
  Q 264.73 1145.16 263.27 1149.99
  Q 260.01 1160.77 257.92 1171.35
  Q 253.85 1191.96 263.58 1210.02
  C 269.75 1221.45 281.30 1227.38 291.74 1233.95
  Q 323.62 1254.02 360.53 1265.45
  Q 372.03 1269.00 383.92 1271.33
  C 404.01 1275.25 422.32 1278.55 441.56 1279.49
  Q 479.79 1281.35 518.23 1275.90
  Q 552.83 1271.00 580.86 1263.28
  Q 605.93 1256.37 626.61 1249.64
  A 0.64 0.63 -27.6 0 1 627.31 1249.85
  Q 643.36 1270.27 667.22 1280.73
  C 676.96 1285.01 685.56 1286.72 695.75 1287.27
  C 709.26 1287.99 723.61 1286.98 736.13 1282.07
  Q 762.02 1271.91 779.20 1249.57
  A 0.66 0.65 -61.5 0 1 779.94 1249.35
  Q 838.92 1270.05 901.17 1277.36
  Q 929.42 1280.68 961.02 1279.81
  Q 981.15 1279.25 1010.48 1273.99
  Q 1077.64 1261.93 1129.32 1224.28
  Q 1135.53 1219.77 1138.29 1216.30
  Q 1152.10 1199.03 1149.31 1177.01
  C 1148.10 1167.43 1146.42 1161.20 1143.50 1151.04
  C 1142.37 1147.09 1142.02 1143.45 1142.06 1139.48
  A 2.04 2.03 -20.3 0 1 1142.76 1137.97
  Q 1146.95 1134.34 1151.43 1129.71
  C 1170.33 1110.19 1179.41 1082.31 1173.74 1055.51
  Q 1169.47 1035.31 1157.35 1017.85
  Q 1154.93 1014.37 1158.40 1011.39
  Q 1181.89 991.26 1202.48 967.23
  Q 1210.91 957.40 1216.83 948.05
  A 0.60 0.60 0.0 0 1 1217.66 947.86
  Q 1243.12 964.10 1268.70 983.46
  Q 1272.87 986.61 1275.10 986.95
  C 1285.10 988.50 1289.74 976.72 1281.88 970.84
  Q 1250.52 947.35 1228.26 933.40
  A 1.11 1.10 27.9 0 1 1227.83 932.02
  Q 1229.28 928.69 1230.74 926.22
  C 1241.69 907.73 1250.36 889.10 1256.20 868.86
  Q 1262.98 845.38 1266.21 819.89
  A 0.65 0.64 -78.9 0 1 1267.01 819.35
  Z"
/>
<g fill="#0e193a">
<path d="
  M 1267.01 819.35
  A 0.65 0.64 -78.9 0 0 1266.21 819.89
  Q 1262.98 845.38 1256.20 868.86
  C 1250.36 889.10 1241.69 907.73 1230.74 926.22
  Q 1229.28 928.69 1227.83 932.02
  A 1.11 1.10 27.9 0 0 1228.26 933.40
  Q 1250.52 947.35 1281.88 970.84
  C 1289.74 976.72 1285.10 988.50 1275.10 986.95
  Q 1272.87 986.61 1268.70 983.46
  Q 1243.12 964.10 1217.66 947.86
  A 0.60 0.60 0.0 0 0 1216.83 948.05
  Q 1210.91 957.40 1202.48 967.23
  Q 1181.89 991.26 1158.40 1011.39
  Q 1154.93 1014.37 1157.35 1017.85
  Q 1169.47 1035.31 1173.74 1055.51
  C 1179.41 1082.31 1170.33 1110.19 1151.43 1129.71
  Q 1146.95 1134.34 1142.76 1137.97
  A 2.04 2.03 -20.3 0 0 1142.06 1139.48
  C 1142.02 1143.45 1142.37 1147.09 1143.50 1151.04
  C 1146.42 1161.20 1148.10 1167.43 1149.31 1177.01
  Q 1152.10 1199.03 1138.29 1216.30
  Q 1135.53 1219.77 1129.32 1224.28
  Q 1077.64 1261.93 1010.48 1273.99
  Q 981.15 1279.25 961.02 1279.81
  Q 929.42 1280.68 901.17 1277.36
  Q 838.92 1270.05 779.94 1249.35
  A 0.66 0.65 -61.5 0 0 779.20 1249.57
  Q 762.02 1271.91 736.13 1282.07
  C 723.61 1286.98 709.26 1287.99 695.75 1287.27
  C 685.56 1286.72 676.96 1285.01 667.22 1280.73
  Q 643.36 1270.27 627.31 1249.85
  A 0.64 0.63 -27.6 0 0 626.61 1249.64
  Q 605.93 1256.37 580.86 1263.28
  Q 552.83 1271.00 518.23 1275.90
  Q 479.79 1281.35 441.56 1279.49
  C 422.32 1278.55 404.01 1275.25 383.92 1271.33
  Q 372.03 1269.00 360.53 1265.45
  Q 323.62 1254.02 291.74 1233.95
  C 281.30 1227.38 269.75 1221.45 263.58 1210.02
  Q 253.85 1191.96 257.92 1171.35
  Q 260.01 1160.77 263.27 1149.99
  Q 264.73 1145.16 264.35 1139.78
  A 2.88 2.86 18.3 0 0 263.33 1137.77
  C 225.07 1105.37 221.28 1058.44 249.20 1017.94
  Q 251.34 1014.84 248.49 1012.29
  C 226.41 992.49 206.15 972.26 189.48 948.22
  A 0.61 0.60 56.0 0 0 188.65 948.05
  Q 160.88 966.03 135.23 985.19
  C 125.40 992.54 114.92 978.25 124.57 970.81
  C 136.88 961.31 158.39 945.99 176.23 934.71
  Q 177.25 934.05 178.01 933.41
  A 1.42 1.42 0.0 0 0 178.32 931.61
  Q 173.60 923.43 169.13 914.88
  C 159.96 897.33 152.98 880.21 147.87 860.56
  Q 142.59 840.29 139.58 820.16
  A 0.51 0.50 -11.0 0 0 138.96 819.75
  C 119.09 824.78 102.35 831.33 81.10 839.32
  Q 76.97 840.87 73.08 837.88
  C 67.58 833.64 68.81 825.15 75.21 822.47
  Q 107.07 809.13 138.10 800.96
  A 1.17 1.16 82.4 0 0 138.97 799.82
  C 138.88 771.77 143.31 746.90 149.60 717.05
  Q 155.64 688.43 165.72 657.46
  Q 178.57 618.01 195.73 580.47
  Q 205.26 559.64 214.97 542.54
  A 1.50 1.47 50.7 0 0 215.08 541.32
  Q 195.72 487.20 183.85 431.68
  Q 181.69 421.57 177.24 396.42
  C 171.57 364.33 168.82 333.84 168.52 302.21
  Q 168.26 274.65 172.60 242.47
  Q 176.62 212.65 183.32 183.54
  Q 188.62 160.47 198.06 137.35
  Q 199.13 134.72 202.86 129.84
  Q 211.27 118.84 225.68 118.62
  Q 238.74 118.43 244.06 118.88
  Q 264.57 120.64 284.98 125.56
  C 316.99 133.28 347.99 145.39 376.97 160.30
  Q 412.71 178.70 440.34 198.18
  Q 466.36 216.52 490.47 237.15
  A 1.32 1.31 49.3 0 0 492.01 237.27
  Q 513.60 224.09 529.82 215.33
  Q 570.92 193.15 613.18 180.94
  Q 641.58 172.73 667.23 169.51
  C 705.67 164.68 743.95 167.98 782.93 178.12
  C 829.86 190.33 873.30 211.16 914.00 237.19
  A 1.26 1.26 0.0 0 0 915.48 237.11
  Q 932.98 222.79 948.91 210.67
  C 985.44 182.88 1026.80 159.05 1069.09 142.30
  Q 1107.53 127.08 1140.93 121.51
  C 1153.11 119.48 1164.17 118.55 1176.26 118.61
  C 1181.44 118.63 1187.23 118.82 1191.90 120.89
  C 1202.38 125.53 1207.63 135.05 1211.40 145.64
  C 1220.90 172.35 1226.28 198.50 1231.22 227.01
  Q 1237.74 264.64 1237.66 300.50
  Q 1237.58 336.23 1232.65 372.19
  Q 1220.78 458.78 1191.14 540.87
  A 1.03 1.02 40.4 0 0 1191.21 541.72
  C 1209.25 574.21 1222.94 606.62 1236.91 645.82
  Q 1248.04 677.04 1254.56 707.21
  Q 1256.22 714.88 1260.36 735.02
  C 1264.84 756.77 1267.54 778.63 1267.41 799.77
  A 1.09 1.08 7.9 0 0 1268.22 800.83
  Q 1297.91 808.62 1327.31 820.81
  C 1332.46 822.95 1336.01 824.32 1336.65 829.38
  Q 1337.34 834.88 1333.09 838.11
  C 1329.74 840.65 1326.63 839.91 1322.59 838.34
  C 1299.90 829.54 1285.61 824.20 1267.01 819.35
  Z
  M 269.75 165.06
  Q 276.47 171.40 283.22 177.79
  Q 327.62 219.88 361.24 268.49
  Q 377.85 292.50 380.87 296.92
  C 385.09 303.12 388.12 308.24 391.64 313.81
  A 1.17 1.17 0.0 0 0 393.43 314.04
  Q 414.44 294.32 437.23 276.62
  L 461.60 257.92
  A 0.26 0.25 45.5 0 0 461.60 257.51
  C 430.92 233.72 400.76 211.97 366.74 193.74
  Q 317.91 167.58 264.00 156.51
  Q 262.16 156.13 260.05 156.02
  A 0.46 0.46 0.0 0 0 259.73 156.83
  L 269.75 165.06
  Z
  M 970.55 277.17
  C 989.19 292.48 999.68 301.01 1013.01 314.13
  A 1.01 1.01 0.0 0 0 1014.33 314.20
  Q 1014.92 313.73 1015.14 313.37
  C 1022.13 301.84 1026.81 295.17 1038.65 277.44
  Q 1047.28 264.51 1055.78 253.37
  Q 1092.03 205.83 1136.20 165.48
  L 1146.27 156.87
  A 0.49 0.48 -59.3 0 0 1146.06 156.03
  Q 1145.44 155.90 1144.76 156.02
  Q 1137.69 157.28 1129.13 159.38
  C 1088.03 169.46 1049.42 186.35 1013.89 208.42
  Q 978.10 230.66 944.75 257.31
  A 0.41 0.40 -46.1 0 0 944.76 257.95
  L 970.55 277.17
  Z
  M 216.13 197.25
  Q 205.16 243.26 204.02 290.51
  C 202.87 338.00 208.52 383.81 218.80 430.66
  C 223.60 452.53 231.35 477.96 237.92 499.47
  A 0.82 0.81 52.3 0 0 239.39 499.66
  Q 245.81 489.29 253.57 477.82
  Q 266.83 458.20 279.69 439.40
  Q 301.38 410.76 309.83 401.34
  Q 320.27 389.69 333.42 374.41
  Q 340.47 366.21 359.12 347.51
  C 360.71 345.92 362.54 343.65 364.04 341.88
  C 365.50 340.17 365.94 339.01 364.73 337.06
  Q 342.87 301.48 317.28 267.48
  C 303.43 249.07 288.92 233.10 272.67 216.14
  C 257.23 200.02 240.86 185.49 223.60 171.60
  A 0.29 0.29 0.0 0 0 223.13 171.75
  L 216.13 197.25
  Z
  M 1125.46 437.57
  Q 1147.09 467.72 1167.20 499.90
  A 0.51 0.51 0.0 0 0 1168.11 499.82
  Q 1170.23 494.52 1172.25 487.25
  C 1178.04 466.47 1183.75 448.01 1187.58 430.01
  Q 1192.62 406.34 1196.19 382.73
  Q 1203.13 336.79 1202.37 290.38
  Q 1201.64 245.71 1190.23 197.25
  L 1183.16 171.76
  A 0.36 0.36 0.0 0 0 1182.59 171.57
  Q 1156.42 192.15 1131.79 217.78
  Q 1110.36 240.09 1094.17 260.66
  Q 1068.16 293.70 1044.73 331.74
  Q 1042.43 335.47 1041.15 338.20
  A 1.98 1.95 -49.7 0 0 1041.30 340.16
  Q 1042.71 342.23 1044.60 344.16
  Q 1075.90 376.08 1103.89 410.61
  Q 1114.51 423.72 1125.46 437.57
  Z
  M 177.54 790.67
  Q 179.56 790.52 181.68 790.13
  Q 198.94 786.93 217.70 783.30
  C 227.07 781.49 234.39 780.71 241.88 780.20
  Q 244.65 780.01 245.12 777.69
  Q 253.84 734.56 271.39 696.41
  Q 285.64 665.43 297.91 644.88
  Q 312.55 620.37 337.18 587.24
  Q 349.16 571.12 358.07 561.36
  Q 369.36 548.97 381.09 537.34
  Q 400.47 518.14 409.54 510.28
  Q 431.26 491.46 454.60 474.27
  Q 476.14 458.40 495.04 447.27
  Q 517.59 433.98 537.82 424.10
  C 570.40 408.18 604.94 395.66 640.71 387.97
  Q 667.01 382.31 693.00 381.20
  Q 705.91 380.65 717.50 381.43
  Q 753.40 383.87 788.43 393.33
  Q 796.33 395.46 814.99 401.44
  C 820.93 403.35 825.62 405.60 830.81 407.36
  Q 835.34 408.89 842.54 412.01
  Q 875.15 426.10 900.52 440.75
  Q 937.01 461.81 971.10 488.91
  Q 987.48 501.92 994.02 507.73
  Q 1016.92 528.07 1041.27 553.98
  Q 1050.51 563.80 1056.95 571.79
  Q 1077.57 597.35 1096.70 626.29
  Q 1114.81 653.70 1129.05 684.16
  Q 1135.87 698.75 1138.38 704.62
  Q 1153.90 740.83 1161.54 778.59
  A 1.95 1.95 0.0 0 0 1163.26 780.14
  Q 1171.02 780.87 1181.01 782.15
  Q 1188.17 783.07 1198.63 785.19
  Q 1213.64 788.23 1228.77 790.73
  L 1231.78 791.67
  A 0.56 0.55 -83.3 0 0 1232.50 791.10
  Q 1231.36 775.04 1229.23 759.58
  C 1227.27 745.26 1222.42 724.75 1220.14 714.82
  C 1216.57 699.22 1210.97 681.25 1205.85 665.89
  Q 1193.13 627.73 1181.42 602.57
  Q 1169.86 577.72 1166.51 570.98
  C 1157.43 552.68 1146.54 534.39 1134.76 514.85
  C 1111.64 476.54 1084.65 440.48 1054.95 407.04
  Q 1030.61 379.63 1012.21 361.79
  Q 989.41 339.69 973.83 326.19
  Q 955.45 310.25 932.09 292.43
  Q 898.36 266.70 860.10 245.92
  Q 839.18 234.56 817.99 226.37
  C 791.11 215.98 766.95 208.36 739.25 204.23
  Q 710.69 199.97 681.12 202.54
  Q 655.23 204.78 624.07 214.06
  Q 584.44 225.86 549.49 244.27
  Q 526.33 256.46 499.23 274.54
  C 479.54 287.69 458.45 304.49 440.55 319.30
  Q 430.57 327.56 424.37 333.45
  Q 418.80 338.75 408.54 347.98
  Q 394.12 360.95 371.72 384.73
  Q 338.10 420.43 311.93 455.20
  Q 295.05 477.64 282.98 496.45
  Q 269.56 517.37 256.72 539.48
  Q 242.07 564.72 228.98 593.35
  Q 222.47 607.61 217.48 618.98
  C 207.97 640.68 201.13 661.61 193.78 685.76
  Q 184.25 717.09 177.99 753.00
  Q 174.70 771.88 173.66 790.75
  A 0.66 0.66 0.0 0 0 174.48 791.43
  L 177.54 790.67
  Z
  M 302.46 775.63
  Q 340.67 774.39 377.31 777.69
  C 387.48 778.61 399.07 779.54 409.20 780.95
  Q 440.96 785.36 473.56 791.83
  C 476.66 792.44 479.77 792.77 482.24 794.34
  C 488.56 798.35 486.24 808.29 480.01 810.52
  Q 477.83 811.30 470.20 809.79
  Q 442.91 804.37 411.27 799.72
  Q 387.45 796.21 367.03 794.65
  C 344.64 792.93 320.45 793.31 297.56 794.06
  A 0.32 0.32 0.0 0 0 297.29 794.52
  L 301.32 802.79
  Q 313.85 830.45 332.58 854.34
  C 335.07 857.51 336.22 859.84 340.08 858.63
  Q 349.98 855.54 360.57 852.50
  Q 397.87 842.19 432.49 836.69
  Q 444.57 834.78 471.68 831.54
  C 476.86 830.92 481.51 829.88 484.29 833.60
  Q 487.58 837.98 486.03 843.21
  Q 484.58 848.11 477.76 848.84
  Q 444.39 852.40 411.96 858.71
  Q 405.48 859.97 395.99 862.39
  C 388.71 864.24 381.52 865.78 374.43 868.09
  Q 363.48 871.03 352.00 874.68
  Q 350.98 875.00 350.42 875.54
  A 0.93 0.92 48.5 0 0 350.35 876.80
  Q 368.81 899.42 390.42 919.09
  Q 445.94 969.65 513.18 1002.32
  Q 561.93 1026.00 562.01 1026.04
  Q 580.16 1035.12 590.63 1041.11
  C 617.92 1056.74 643.67 1077.72 663.75 1102.43
  A 1.33 1.32 60.3 0 0 665.24 1102.84
  Q 674.19 1099.49 684.25 1096.99
  C 703.16 1092.31 723.08 1094.88 740.82 1102.89
  A 1.58 1.57 -56.8 0 0 742.66 1102.50
  C 752.74 1091.06 762.52 1080.11 774.09 1070.51
  Q 800.06 1048.95 827.31 1034.85
  C 854.30 1020.88 894.47 1003.13 922.88 986.92
  Q 982.51 952.87 1031.38 904.39
  Q 1044.82 891.06 1055.74 877.14
  A 1.33 1.33 0.0 0 0 1055.09 875.05
  L 1031.27 867.77
  Q 981.95 854.05 931.52 849.15
  Q 925.77 848.59 923.97 847.52
  C 918.03 844.00 918.75 834.91 924.20 831.73
  Q 926.09 830.63 931.50 831.17
  Q 990.07 837.03 1046.21 852.65
  Q 1055.02 854.88 1063.20 857.50
  Q 1067.65 858.92 1068.17 858.94
  Q 1070.67 859.03 1072.58 856.61
  Q 1090.82 833.57 1101.83 810.35
  L 1109.19 794.64
  A 0.49 0.48 13.6 0 0 1108.76 793.95
  Q 1083.15 792.80 1055.08 793.74
  Q 1032.92 794.49 1001.60 798.90
  Q 966.56 803.83 931.32 810.83
  C 925.57 811.97 921.65 809.11 920.47 803.55
  C 918.74 795.35 924.95 793.45 932.15 792.03
  Q 963.73 785.80 989.57 782.12
  Q 1045.49 774.16 1103.09 775.38
  L 1115.30 775.89
  A 1.48 1.48 0.0 0 0 1116.74 774.98
  C 1118.48 770.89 1121.70 762.85 1120.56 758.99
  Q 1112.01 729.96 1099.06 701.22
  Q 1091.65 684.77 1084.50 672.48
  C 1075.43 656.89 1063.22 637.29 1051.55 621.33
  Q 1012.54 567.95 961.60 525.84
  C 919.71 491.22 873.61 461.98 823.32 441.59
  C 806.62 434.82 789.73 429.71 772.03 425.02
  Q 708.42 408.17 644.69 422.48
  Q 593.01 434.07 544.37 459.32
  C 476.17 494.72 416.00 544.01 368.05 603.77
  Q 326.38 655.71 300.32 717.40
  C 295.15 729.63 291.33 741.78 286.27 756.26
  Q 285.03 759.82 285.50 762.04
  Q 286.81 768.26 289.85 775.04
  A 1.73 1.73 0.0 0 0 291.50 776.06
  L 302.46 775.63
  Z
  M 1165.53 798.53
  A 1.00 1.00 0.0 0 0 1164.43 799.65
  Q 1170.64 846.75 1154.20 891.26
  A 1.54 1.53 -67.3 0 0 1154.98 893.16
  Q 1175.27 902.90 1195.37 914.13
  A 1.80 1.79 31.3 0 0 1197.74 913.56
  Q 1202.88 905.81 1206.59 898.45
  C 1220.01 871.78 1229.20 841.96 1232.07 811.99
  A 1.84 1.83 7.3 0 0 1230.54 810.01
  C 1216.14 807.71 1199.66 803.44 1183.56 801.04
  Q 1170.55 799.09 1165.53 798.53
  Z
  M 240.60 798.51
  Q 235.58 799.09 222.57 801.08
  C 206.48 803.53 190.00 807.86 175.61 810.20
  A 1.84 1.83 -7.5 0 0 174.08 812.19
  C 177.05 842.16 186.34 871.96 199.85 898.59
  Q 203.58 905.94 208.75 913.68
  A 1.80 1.79 -31.5 0 0 211.12 914.24
  Q 231.19 902.94 251.46 893.14
  A 1.54 1.53 67.1 0 0 252.23 891.23
  Q 235.64 846.76 241.70 799.63
  A 1.00 1.00 0.0 0 0 240.60 798.51
  Z
  M 610.04 1169.32
  Q 613.51 1153.05 622.91 1138.39
  C 626.59 1132.65 629.80 1128.24 634.45 1124.08
  A 1.21 1.20 48.7 0 0 634.56 1122.39
  Q 628.26 1115.02 624.03 1110.49
  Q 620.30 1106.50 612.22 1099.67
  Q 577.18 1070.03 534.75 1052.10
  Q 522.15 1046.78 506.77 1041.99
  Q 486.35 1035.63 478.25 1033.50
  Q 439.44 1023.29 410.75 1014.01
  Q 391.38 1007.75 374.24 1000.53
  Q 344.33 987.94 318.16 969.46
  C 307.57 961.98 297.75 954.59 288.66 945.09
  Q 275.91 931.77 266.26 917.30
  C 264.54 914.72 263.09 911.74 261.54 909.85
  A 2.36 2.34 56.3 0 0 258.64 909.26
  L 220.75 929.03
  A 1.74 1.74 0.0 0 0 220.17 931.61
  Q 227.25 941.10 233.69 949.04
  Q 240.40 957.31 250.75 967.00
  C 263.03 978.50 275.77 990.80 289.87 1000.91
  Q 310.32 1015.57 317.52 1020.24
  Q 339.08 1034.22 364.13 1046.89
  C 396.07 1063.05 429.09 1076.46 463.01 1087.20
  Q 475.98 1091.31 507.32 1099.17
  Q 519.34 1102.19 521.68 1113.61
  C 522.11 1115.71 521.64 1117.44 521.27 1120.01
  C 519.90 1129.39 512.19 1133.98 502.99 1133.06
  Q 498.76 1132.64 493.13 1131.37
  Q 471.92 1126.59 452.72 1120.25
  Q 424.60 1110.95 416.13 1107.85
  C 386.53 1097.03 356.67 1082.91 328.76 1067.85
  Q 314.64 1060.23 304.30 1053.13
  Q 289.13 1042.71 280.05 1036.58
  A 1.47 1.47 0.0 0 0 278.00 1037.00
  C 271.07 1047.65 265.63 1060.45 265.67 1073.24
  Q 265.69 1082.50 270.81 1091.22
  C 275.95 1099.99 279.39 1105.34 286.00 1111.00
  Q 299.43 1122.49 314.58 1129.90
  C 319.48 1132.30 323.43 1134.55 327.25 1136.19
  Q 352.22 1146.88 363.48 1150.49
  Q 375.72 1154.42 392.00 1157.28
  C 398.29 1158.39 402.78 1161.39 405.14 1167.13
  Q 408.08 1174.28 405.16 1181.39
  C 400.90 1191.75 392.55 1192.65 382.52 1190.71
  Q 361.83 1186.71 338.99 1178.24
  C 323.43 1172.46 311.99 1168.22 298.75 1161.04
  A 1.59 1.59 0.0 0 0 296.47 1161.99
  Q 293.63 1171.39 292.77 1181.65
  C 292.35 1186.64 291.96 1190.38 294.82 1193.40
  Q 298.86 1197.66 310.18 1204.80
  Q 322.37 1212.50 341.93 1221.64
  Q 345.24 1223.19 350.90 1225.41
  C 361.10 1229.43 371.28 1232.92 382.02 1235.46
  C 405.51 1241.00 428.93 1244.48 453.58 1244.79
  Q 485.29 1245.19 511.12 1241.85
  Q 523.71 1240.22 554.72 1234.08
  Q 565.72 1231.90 581.51 1226.91
  Q 585.79 1225.56 610.30 1218.10
  A 1.04 1.03 -13.9 0 0 611.02 1216.91
  L 608.95 1206.57
  A 1.69 1.68 -3.8 0 0 607.40 1205.22
  Q 580.07 1203.52 551.26 1199.98
  Q 532.94 1197.73 495.76 1190.49
  Q 478.70 1187.17 464.94 1182.58
  Q 458.54 1180.45 456.67 1178.52
  Q 451.50 1173.18 450.70 1164.65
  C 450.04 1157.64 455.56 1149.85 462.80 1148.93
  Q 467.02 1148.40 469.50 1149.06
  Q 486.10 1153.50 489.68 1154.32
  Q 501.55 1157.07 528.75 1161.73
  C 544.35 1164.40 556.95 1165.35 575.89 1167.70
  C 586.33 1168.99 598.35 1169.91 608.25 1170.67
  A 1.71 1.70 -81.9 0 0 610.04 1169.32
  Z
  M 1124.27 1107.23
  C 1130.29 1100.82 1132.72 1095.77 1137.13 1087.11
  C 1143.81 1073.98 1140.00 1059.21 1133.63 1046.36
  Q 1132.90 1044.88 1128.68 1037.03
  A 1.91 1.91 0.0 0 0 1125.86 1036.40
  Q 1124.03 1037.76 1122.75 1038.71
  Q 1110.73 1047.66 1089.60 1060.83
  C 1071.28 1072.26 1052.43 1080.99 1032.40 1090.43
  C 1008.06 1101.91 981.52 1111.37 955.73 1119.67
  Q 929.73 1128.04 910.99 1132.12
  C 905.98 1133.21 899.88 1133.92 894.45 1131.99
  C 887.64 1129.57 884.13 1121.67 884.65 1114.99
  Q 885.41 1105.26 894.61 1100.80
  Q 896.26 1100.00 905.51 1097.74
  Q 944.15 1088.27 983.93 1073.13
  Q 1022.66 1058.40 1059.67 1037.95
  Q 1078.87 1027.34 1092.29 1018.09
  Q 1110.25 1005.71 1123.37 995.86
  Q 1128.87 991.72 1130.90 989.89
  Q 1145.71 976.50 1163.31 959.32
  Q 1171.61 951.22 1174.13 947.85
  Q 1183.19 935.77 1186.42 931.15
  A 1.33 1.33 0.0 0 0 1185.95 929.21
  L 1147.34 909.12
  A 1.47 1.47 0.0 0 0 1145.41 909.65
  Q 1123.18 945.38 1088.74 969.27
  Q 1061.49 988.17 1031.73 1000.69
  Q 1013.26 1008.47 993.17 1014.88
  Q 966.67 1023.34 942.69 1029.63
  Q 922.22 1035.00 917.27 1036.51
  Q 905.59 1040.05 892.16 1044.41
  C 872.07 1050.93 853.43 1060.03 835.08 1070.58
  C 817.48 1080.71 802.19 1092.52 787.15 1105.91
  Q 780.19 1112.10 772.97 1120.47
  C 771.76 1121.87 770.88 1123.12 772.52 1124.56
  Q 778.29 1129.64 786.42 1143.80
  Q 793.58 1156.27 796.53 1169.65
  A 0.93 0.92 81.8 0 0 797.50 1170.38
  C 813.23 1169.35 830.63 1167.59 857.61 1164.58
  Q 875.82 1162.54 912.49 1155.10
  C 920.25 1153.53 930.27 1150.31 937.04 1148.53
  Q 940.49 1147.62 944.61 1148.94
  Q 955.00 1152.27 956.46 1163.35
  Q 956.98 1167.31 955.63 1170.88
  C 952.73 1178.51 946.09 1181.80 938.56 1183.81
  Q 921.62 1188.32 906.13 1191.37
  Q 852.10 1201.99 798.66 1205.26
  A 1.15 1.15 0.0 0 0 797.63 1206.13
  L 795.11 1216.31
  A 1.56 1.55 -75.2 0 0 796.19 1218.17
  Q 810.26 1222.23 825.49 1227.10
  Q 839.46 1231.57 849.34 1233.53
  Q 883.40 1240.29 897.89 1242.11
  Q 922.30 1245.16 952.51 1244.77
  Q 973.95 1244.49 989.84 1242.32
  C 995.19 1241.59 1000.00 1240.49 1004.50 1239.87
  Q 1008.93 1239.27 1015.44 1237.79
  Q 1032.80 1233.83 1045.60 1229.55
  Q 1057.00 1225.74 1069.73 1219.46
  Q 1085.45 1211.70 1099.93 1202.67
  C 1105.30 1199.32 1111.17 1195.09 1114.03 1189.54
  A 4.19 4.17 -32.8 0 0 1114.49 1187.44
  Q 1114.06 1176.97 1112.53 1171.46
  Q 1110.67 1164.78 1109.81 1160.94
  A 0.89 0.89 0.0 0 0 1108.47 1160.37
  Q 1106.28 1161.73 1104.22 1162.72
  Q 1076.42 1176.09 1044.31 1185.79
  C 1036.77 1188.07 1027.57 1187.91 1022.61 1181.22
  C 1015.07 1171.06 1019.19 1157.21 1031.36 1153.64
  Q 1054.04 1146.98 1069.29 1140.45
  Q 1073.38 1138.70 1074.17 1138.02
  A 1.37 1.35 13.4 0 1 1074.60 1137.76
  Q 1083.45 1134.33 1086.59 1132.58
  Q 1091.51 1129.83 1099.18 1125.92
  C 1107.60 1121.62 1116.58 1115.42 1124.27 1107.23
  Z
  M 706.8271 1126.9205
  A 64.44 64.21 -86.8 0 0 639.1201 1187.6757
  A 64.44 64.21 -86.8 0 0 699.6329 1255.5995
  A 64.44 64.21 -86.8 0 0 767.3399 1194.8443
  A 64.44 64.21 -86.8 0 0 706.8271 1126.9205
  Z"
/>
<path d="
  M 509.65 646.33
  Q 529.07 646.55 547.56 654.52
  Q 573.86 665.85 589.75 689.76
  C 592.50 693.88 595.81 699.26 596.56 704.06
  C 598.35 715.52 590.34 724.25 578.99 724.36
  C 567.65 724.46 565.03 715.19 558.87 706.83
  C 547.54 691.46 528.94 680.76 509.27 680.54
  C 489.60 680.32 470.77 690.61 459.10 705.72
  C 452.75 713.94 449.93 723.15 438.59 722.80
  C 427.25 722.44 419.43 713.53 421.48 702.11
  C 422.34 697.33 425.76 692.03 428.60 687.97
  Q 445.02 664.42 471.57 653.67
  Q 490.23 646.12 509.65 646.33
  Z"
/>
<path d="
  M 810.56 700.56
  C 821.10 677.63 841.75 660.30 865.44 651.90
  C 895.05 641.39 924.81 645.91 951.39 662.13
  C 961.39 668.24 970.12 676.90 976.77 686.09
  C 982.81 694.44 988.28 705.05 982.62 714.65
  C 977.21 723.82 963.63 725.19 956.12 718.15
  Q 954.46 716.60 950.80 710.67
  Q 937.50 689.10 912.48 682.52
  C 895.22 677.97 879.36 681.28 864.28 690.55
  Q 854.50 696.55 848.27 705.53
  Q 845.94 708.90 841.05 716.53
  C 834.39 726.92 819.50 726.30 812.47 716.87
  C 809.06 712.30 808.28 705.53 810.56 700.56
  Z"
/>
<path d="
  M 703.53 870.84
  A 0.81 0.81 0.0 0 0 702.32 870.87
  Q 677.44 900.00 639.58 902.18
  C 607.53 904.02 575.30 888.82 560.67 859.49
  C 555.97 850.09 548.04 836.52 555.16 826.67
  C 562.39 816.66 576.22 815.78 584.08 825.62
  Q 586.05 828.09 587.42 832.58
  C 592.53 849.26 602.56 861.06 619.65 866.11
  Q 635.36 870.75 651.59 865.85
  C 660.23 863.24 672.34 855.35 677.86 847.18
  C 682.19 840.76 685.80 832.70 686.33 824.77
  C 686.70 819.12 686.34 816.39 681.74 813.00
  C 675.63 808.50 667.75 803.09 661.25 796.59
  C 654.78 790.11 650.88 786.73 648.52 782.57
  C 645.26 776.80 646.16 769.16 650.10 764.49
  C 657.75 755.43 674.00 755.88 684.53 756.82
  Q 703.79 758.54 713.25 757.66
  Q 717.31 757.28 727.18 756.62
  C 740.55 755.72 761.33 758.08 759.55 776.78
  C 758.83 784.36 752.05 789.64 745.04 796.73
  C 738.71 803.13 729.43 809.45 724.21 813.71
  C 719.61 817.47 719.55 821.51 719.88 827.25
  Q 720.17 832.31 723.72 838.78
  C 733.02 855.71 748.83 867.12 768.49 868.18
  C 790.06 869.34 809.53 858.76 817.29 838.30
  C 818.64 834.75 819.50 829.81 821.62 826.70
  C 828.09 817.18 840.82 815.93 849.04 824.19
  C 859.51 834.69 851.02 849.98 844.95 860.98
  C 826.15 895.07 787.98 907.85 751.09 900.14
  C 732.54 896.27 716.42 884.56 703.53 870.84
  Z"
/>
</g>
<g fill="#f89739">
<path d="
  M 437.23 276.62
  Q 414.44 294.32 393.43 314.04
  A 1.17 1.17 0.0 0 1 391.64 313.81
  C 388.12 308.24 385.09 303.12 380.87 296.92
  Q 377.85 292.50 361.24 268.49
  Q 327.62 219.88 283.22 177.79
  Q 276.47 171.40 269.75 165.06
  L 271.80 164.49
  A 1.22 1.21 -42.6 0 1 272.53 164.52
  L 275.94 165.69
  A 2.24 2.23 -18.7 0 1 276.43 165.93
  Q 282.12 169.60 289.39 172.88
  C 300.39 177.84 317.45 184.07 329.71 190.09
  Q 340.27 195.28 352.07 202.70
  Q 366.64 211.86 370.78 214.72
  Q 392.43 229.66 406.92 243.33
  Q 425.83 261.17 426.74 262.02
  C 430.97 266.00 434.32 268.97 436.68 273.26
  A 1.46 1.42 35.1 0 1 436.85 274.17
  Q 436.63 275.54 437.23 276.62
  Z"
/>
<path d="
  M 1136.20 165.48
  Q 1092.03 205.83 1055.78 253.37
  Q 1047.28 264.51 1038.65 277.44
  C 1026.81 295.17 1022.13 301.84 1015.14 313.37
  Q 1014.92 313.73 1014.33 314.20
  A 1.01 1.01 0.0 0 1 1013.01 314.13
  C 999.68 301.01 989.19 292.48 970.55 277.17
  Q 972.31 276.33 970.06 274.04
  A 1.10 1.10 0.0 0 1 969.94 272.64
  C 971.45 270.52 973.04 268.05 974.94 266.34
  C 977.48 264.07 979.00 262.23 981.90 259.44
  Q 988.64 252.99 1002.12 240.63
  Q 1015.62 228.25 1034.11 215.86
  C 1042.94 209.95 1046.68 207.59 1056.87 201.25
  Q 1068.60 193.96 1080.36 188.65
  Q 1098.04 180.66 1115.90 173.43
  Q 1123.21 170.47 1130.42 165.97
  Q 1133.44 164.09 1136.20 165.48
  Z"
/>
<path d="
  M 1103.09 775.38
  Q 1045.49 774.16 989.57 782.12
  Q 963.73 785.80 932.15 792.03
  C 924.95 793.45 918.74 795.35 920.47 803.55
  C 921.65 809.11 925.57 811.97 931.32 810.83
  Q 966.56 803.83 1001.60 798.90
  Q 1032.92 794.49 1055.08 793.74
  Q 1083.15 792.80 1108.76 793.95
  A 0.49 0.48 13.6 0 1 1109.19 794.64
  L 1101.83 810.35
  Q 1101.87 804.98 1105.04 799.07
  A 1.59 1.59 0.0 0 0 1103.85 796.75
  C 1099.70 796.21 1096.45 795.63 1092.65 795.55
  Q 1064.72 794.97 1052.50 795.67
  Q 1028.78 797.02 1023.48 797.79
  C 1017.52 798.66 1010.80 800.29 1011.66 807.73
  C 1012.48 814.75 1018.95 818.24 1025.01 821.11
  Q 1042.09 829.21 1058.39 834.42
  A 0.45 0.45 0.0 0 1 1058.62 835.10
  L 1046.21 852.65
  Q 990.07 837.03 931.50 831.17
  Q 926.09 830.63 924.20 831.73
  C 918.75 834.91 918.03 844.00 923.97 847.52
  Q 925.77 848.59 931.52 849.15
  Q 981.95 854.05 1031.27 867.77
  Q 1030.95 869.22 1028.96 870.62
  Q 1026.55 872.33 1025.97 872.86
  C 1016.65 881.36 1008.31 889.53 999.74 896.74
  Q 971.78 920.26 947.31 936.03
  Q 914.14 957.41 875.99 974.20
  Q 842.21 989.07 800.25 998.82
  Q 783.36 1002.75 758.61 1006.35
  Q 734.60 1009.85 716.51 1010.43
  C 661.72 1012.21 605.68 1001.75 553.82 983.25
  Q 531.46 975.27 510.18 964.61
  Q 485.66 952.34 468.49 941.74
  Q 437.08 922.36 406.35 896.14
  Q 394.35 885.89 378.47 870.77
  A 5.15 5.04 -10.0 0 0 377.14 869.86
  Q 375.51 869.11 374.43 868.09
  C 381.52 865.78 388.71 864.24 395.99 862.39
  Q 405.48 859.97 411.96 858.71
  Q 444.39 852.40 477.76 848.84
  Q 484.58 848.11 486.03 843.21
  Q 487.58 837.98 484.29 833.60
  C 481.51 829.88 476.86 830.92 471.68 831.54
  Q 444.57 834.78 432.49 836.69
  Q 397.87 842.19 360.57 852.50
  Q 355.61 843.11 348.65 835.69
  A 0.51 0.50 -32.1 0 1 348.84 834.87
  Q 361.50 830.10 374.82 824.23
  C 378.79 822.48 383.78 820.67 387.90 817.94
  C 394.09 813.82 398.35 804.54 390.32 799.50
  C 388.64 798.45 385.91 798.49 384.12 798.12
  C 379.70 797.20 375.45 797.34 370.97 796.81
  Q 368.67 796.54 362.53 796.30
  Q 346.38 795.68 333.00 795.46
  Q 323.64 795.30 317.06 795.56
  C 311.64 795.78 307.17 796.35 302.21 796.35
  A 1.77 1.77 0.0 0 0 300.64 798.94
  L 302.53 802.56
  A 0.43 0.43 0.0 0 1 301.86 803.08
  Q 301.63 802.87 301.32 802.79
  L 297.29 794.52
  A 0.32 0.32 0.0 0 1 297.56 794.06
  C 320.45 793.31 344.64 792.93 367.03 794.65
  Q 387.45 796.21 411.27 799.72
  Q 442.91 804.37 470.20 809.79
  Q 477.83 811.30 480.01 810.52
  C 486.24 808.29 488.56 798.35 482.24 794.34
  C 479.77 792.77 476.66 792.44 473.56 791.83
  Q 440.96 785.36 409.20 780.95
  C 399.07 779.54 387.48 778.61 377.31 777.69
  Q 340.67 774.39 302.46 775.63
  Q 306.32 765.51 307.19 761.96
  Q 307.74 759.71 309.98 759.77
  Q 332.90 760.39 351.61 759.63
  C 362.19 759.20 372.97 758.43 382.77 755.04
  C 388.96 752.90 391.74 746.86 388.14 740.89
  C 383.62 733.40 375.88 730.80 368.19 727.80
  Q 346.57 719.35 329.92 715.61
  Q 329.01 715.40 328.60 715.04
  A 0.94 0.93 -57.0 0 1 328.37 713.94
  Q 332.08 706.06 338.16 695.91
  Q 390.41 608.70 475.16 551.14
  Q 505.41 530.60 536.85 514.62
  Q 551.61 507.11 565.64 501.67
  Q 570.97 499.60 576.71 497.05
  A 0.86 0.86 0.0 0 1 577.87 497.54
  Q 587.02 522.92 602.72 544.76
  C 605.94 549.22 614.89 557.78 620.98 557.18
  C 630.51 556.22 632.43 539.61 632.91 531.94
  Q 634.51 506.16 630.20 480.21
  A 1.16 1.15 79.7 0 1 631.11 478.89
  L 660.66 473.00
  A 1.23 1.23 0.0 0 1 662.13 474.06
  Q 666.69 513.85 676.24 551.30
  C 677.72 557.10 679.92 563.73 681.75 569.01
  Q 684.80 577.79 689.35 584.96
  C 694.90 593.73 703.67 599.94 712.56 590.29
  C 718.60 583.74 722.24 574.80 725.54 565.59
  Q 729.41 554.78 731.82 544.39
  Q 740.07 508.77 743.94 474.13
  A 1.11 1.11 0.0 0 1 745.23 473.16
  L 774.97 478.46
  A 1.15 1.15 0.0 0 1 775.90 479.77
  C 772.82 500.23 771.23 521.99 774.61 542.62
  C 775.90 550.46 781.03 561.37 791.22 555.65
  Q 799.90 550.78 805.86 541.59
  Q 819.00 521.32 828.16 497.56
  A 0.80 0.79 20.5 0 1 829.18 497.10
  Q 858.73 508.14 885.53 523.00
  C 925.80 545.32 963.28 571.82 995.79 603.94
  Q 1031.94 639.66 1063.42 687.99
  C 1068.78 696.22 1073.11 705.54 1077.91 714.31
  A 0.74 0.74 0.0 0 1 1077.39 715.39
  Q 1070.73 716.60 1065.37 718.12
  Q 1044.62 723.99 1027.17 732.91
  C 1022.30 735.40 1016.19 740.84 1016.68 746.78
  C 1017.28 753.89 1025.46 756.47 1031.56 757.68
  C 1038.60 759.08 1046.94 759.88 1054.54 760.00
  Q 1074.27 760.29 1096.66 758.98
  A 1.37 1.32 -29.6 0 1 1097.48 759.19
  Q 1098.65 759.95 1099.16 761.57
  Q 1100.77 766.68 1102.26 771.80
  Q 1102.46 772.47 1103.01 773.60
  Q 1103.76 775.12 1103.09 775.38
  Z
  M 509.27 680.54
  C 528.94 680.76 547.54 691.46 558.87 706.83
  C 565.03 715.19 567.65 724.46 578.99 724.36
  C 590.34 724.25 598.35 715.52 596.56 704.06
  C 595.81 699.26 592.50 693.88 589.75 689.76
  Q 573.86 665.85 547.56 654.52
  Q 529.07 646.55 509.65 646.33
  Q 490.23 646.12 471.57 653.67
  Q 445.02 664.42 428.60 687.97
  C 425.76 692.03 422.34 697.33 421.48 702.11
  C 419.43 713.53 427.25 722.44 438.59 722.80
  C 449.93 723.15 452.75 713.94 459.10 705.72
  C 470.77 690.61 489.60 680.32 509.27 680.54
  Z
  M 865.44 651.90
  C 841.75 660.30 821.10 677.63 810.56 700.56
  C 808.28 705.53 809.06 712.30 812.47 716.87
  C 819.50 726.30 834.39 726.92 841.05 716.53
  Q 845.94 708.90 848.27 705.53
  Q 854.50 696.55 864.28 690.55
  C 879.36 681.28 895.22 677.97 912.48 682.52
  Q 937.50 689.10 950.80 710.67
  Q 954.46 716.60 956.12 718.15
  C 963.63 725.19 977.21 723.82 982.62 714.65
  C 988.28 705.05 982.81 694.44 976.77 686.09
  C 970.12 676.90 961.39 668.24 951.39 662.13
  C 924.81 645.91 895.05 641.39 865.44 651.90
  Z
  M 703.53 870.84
  C 716.42 884.56 732.54 896.27 751.09 900.14
  C 787.98 907.85 826.15 895.07 844.95 860.98
  C 851.02 849.98 859.51 834.69 849.04 824.19
  C 840.82 815.93 828.09 817.18 821.62 826.70
  C 819.50 829.81 818.64 834.75 817.29 838.30
  C 809.53 858.76 790.06 869.34 768.49 868.18
  C 748.83 867.12 733.02 855.71 723.72 838.78
  Q 720.17 832.31 719.88 827.25
  C 719.55 821.51 719.61 817.47 724.21 813.71
  C 729.43 809.45 738.71 803.13 745.04 796.73
  C 752.05 789.64 758.83 784.36 759.55 776.78
  C 761.33 758.08 740.55 755.72 727.18 756.62
  Q 717.31 757.28 713.25 757.66
  Q 703.79 758.54 684.53 756.82
  C 674.00 755.88 657.75 755.43 650.10 764.49
  C 646.16 769.16 645.26 776.80 648.52 782.57
  C 650.88 786.73 654.78 790.11 661.25 796.59
  C 667.75 803.09 675.63 808.50 681.74 813.00
  C 686.34 816.39 686.70 819.12 686.33 824.77
  C 685.80 832.70 682.19 840.76 677.86 847.18
  C 672.34 855.35 660.23 863.24 651.59 865.85
  Q 635.36 870.75 619.65 866.11
  C 602.56 861.06 592.53 849.26 587.42 832.58
  Q 586.05 828.09 584.08 825.62
  C 576.22 815.78 562.39 816.66 555.16 826.67
  C 548.04 836.52 555.97 850.09 560.67 859.49
  C 575.30 888.82 607.53 904.02 639.58 902.18
  Q 677.44 900.00 702.32 870.87
  A 0.81 0.81 0.0 0 1 703.53 870.84
  Z"
/>
</g>
<g fill="#dd631c">
<path d="
  M 1103.09 775.38
  Q 1103.76 775.12 1103.01 773.60
  Q 1102.46 772.47 1102.26 771.80
  Q 1100.77 766.68 1099.16 761.57
  Q 1098.65 759.95 1097.48 759.19
  A 1.37 1.32 -29.6 0 0 1096.66 758.98
  Q 1074.27 760.29 1054.54 760.00
  C 1046.94 759.88 1038.60 759.08 1031.56 757.68
  C 1025.46 756.47 1017.28 753.89 1016.68 746.78
  C 1016.19 740.84 1022.30 735.40 1027.17 732.91
  Q 1044.62 723.99 1065.37 718.12
  Q 1070.73 716.60 1077.39 715.39
  A 0.74 0.74 0.0 0 0 1077.91 714.31
  C 1073.11 705.54 1068.78 696.22 1063.42 687.99
  Q 1031.94 639.66 995.79 603.94
  C 963.28 571.82 925.80 545.32 885.53 523.00
  Q 858.73 508.14 829.18 497.10
  A 0.80 0.79 20.5 0 0 828.16 497.56
  Q 819.00 521.32 805.86 541.59
  Q 799.90 550.78 791.22 555.65
  C 781.03 561.37 775.90 550.46 774.61 542.62
  C 771.23 521.99 772.82 500.23 775.90 479.77
  A 1.15 1.15 0.0 0 0 774.97 478.46
  L 745.23 473.16
  A 1.11 1.11 0.0 0 0 743.94 474.13
  Q 740.07 508.77 731.82 544.39
  Q 729.41 554.78 725.54 565.59
  C 722.24 574.80 718.60 583.74 712.56 590.29
  C 703.67 599.94 694.90 593.73 689.35 584.96
  Q 684.80 577.79 681.75 569.01
  C 679.92 563.73 677.72 557.10 676.24 551.30
  Q 666.69 513.85 662.13 474.06
  A 1.23 1.23 0.0 0 0 660.66 473.00
  L 631.11 478.89
  A 1.16 1.15 79.7 0 0 630.20 480.21
  Q 634.51 506.16 632.91 531.94
  C 632.43 539.61 630.51 556.22 620.98 557.18
  C 614.89 557.78 605.94 549.22 602.72 544.76
  Q 587.02 522.92 577.87 497.54
  A 0.86 0.86 0.0 0 0 576.71 497.05
  Q 570.97 499.60 565.64 501.67
  Q 551.61 507.11 536.85 514.62
  Q 505.41 530.60 475.16 551.14
  Q 390.41 608.70 338.16 695.91
  Q 332.08 706.06 328.37 713.94
  A 0.94 0.93 -57.0 0 0 328.60 715.04
  Q 329.01 715.40 329.92 715.61
  Q 346.57 719.35 368.19 727.80
  C 375.88 730.80 383.62 733.40 388.14 740.89
  C 391.74 746.86 388.96 752.90 382.77 755.04
  C 372.97 758.43 362.19 759.20 351.61 759.63
  Q 332.90 760.39 309.98 759.77
  Q 307.74 759.71 307.19 761.96
  Q 306.32 765.51 302.46 775.63
  L 291.50 776.06
  A 1.73 1.73 0.0 0 1 289.85 775.04
  Q 286.81 768.26 285.50 762.04
  Q 285.03 759.82 286.27 756.26
  C 291.33 741.78 295.15 729.63 300.32 717.40
  Q 326.38 655.71 368.05 603.77
  C 416.00 544.01 476.17 494.72 544.37 459.32
  Q 593.01 434.07 644.69 422.48
  Q 708.42 408.17 772.03 425.02
  C 789.73 429.71 806.62 434.82 823.32 441.59
  C 873.61 461.98 919.71 491.22 961.60 525.84
  Q 1012.54 567.95 1051.55 621.33
  C 1063.22 637.29 1075.43 656.89 1084.50 672.48
  Q 1091.65 684.77 1099.06 701.22
  Q 1112.01 729.96 1120.56 758.99
  C 1121.70 762.85 1118.48 770.89 1116.74 774.98
  A 1.48 1.48 0.0 0 1 1115.30 775.89
  L 1103.09 775.38
  Z"
/>
<path d="
  M 360.57 852.50
  Q 349.98 855.54 340.08 858.63
  C 336.22 859.84 335.07 857.51 332.58 854.34
  Q 313.85 830.45 301.32 802.79
  Q 301.63 802.87 301.86 803.08
  A 0.43 0.43 0.0 0 0 302.53 802.56
  L 300.64 798.94
  A 1.77 1.77 0.0 0 1 302.21 796.35
  C 307.17 796.35 311.64 795.78 317.06 795.56
  Q 323.64 795.30 333.00 795.46
  Q 346.38 795.68 362.53 796.30
  Q 368.67 796.54 370.97 796.81
  C 375.45 797.34 379.70 797.20 384.12 798.12
  C 385.91 798.49 388.64 798.45 390.32 799.50
  C 398.35 804.54 394.09 813.82 387.90 817.94
  C 383.78 820.67 378.79 822.48 374.82 824.23
  Q 361.50 830.10 348.84 834.87
  A 0.51 0.50 -32.1 0 0 348.65 835.69
  Q 355.61 843.11 360.57 852.50
  Z"
/>
<path d="
  M 1101.83 810.35
  Q 1090.82 833.57 1072.58 856.61
  Q 1070.67 859.03 1068.17 858.94
  Q 1067.65 858.92 1063.20 857.50
  Q 1055.02 854.88 1046.21 852.65
  L 1058.62 835.10
  A 0.45 0.45 0.0 0 0 1058.39 834.42
  Q 1042.09 829.21 1025.01 821.11
  C 1018.95 818.24 1012.48 814.75 1011.66 807.73
  C 1010.80 800.29 1017.52 798.66 1023.48 797.79
  Q 1028.78 797.02 1052.50 795.67
  Q 1064.72 794.97 1092.65 795.55
  C 1096.45 795.63 1099.70 796.21 1103.85 796.75
  A 1.59 1.59 0.0 0 1 1105.04 799.07
  Q 1101.87 804.98 1101.83 810.35
  Z"
/>
<path d="
  M 374.43 868.09
  Q 375.51 869.11 377.14 869.86
  A 5.15 5.04 -10.0 0 1 378.47 870.77
  Q 394.35 885.89 406.35 896.14
  Q 437.08 922.36 468.49 941.74
  Q 485.66 952.34 510.18 964.61
  Q 531.46 975.27 553.82 983.25
  C 605.68 1001.75 661.72 1012.21 716.51 1010.43
  Q 734.60 1009.85 758.61 1006.35
  Q 783.36 1002.75 800.25 998.82
  Q 842.21 989.07 875.99 974.20
  Q 914.14 957.41 947.31 936.03
  Q 971.78 920.26 999.74 896.74
  C 1008.31 889.53 1016.65 881.36 1025.97 872.86
  Q 1026.55 872.33 1028.96 870.62
  Q 1030.95 869.22 1031.27 867.77
  L 1055.09 875.05
  A 1.33 1.33 0.0 0 1 1055.74 877.14
  Q 1044.82 891.06 1031.38 904.39
  Q 982.51 952.87 922.88 986.92
  C 894.47 1003.13 854.30 1020.88 827.31 1034.85
  Q 800.06 1048.95 774.09 1070.51
  C 762.52 1080.11 752.74 1091.06 742.66 1102.50
  A 1.58 1.57 -56.8 0 1 740.82 1102.89
  C 723.08 1094.88 703.16 1092.31 684.25 1096.99
  Q 674.19 1099.49 665.24 1102.84
  A 1.33 1.32 60.3 0 1 663.75 1102.43
  C 643.67 1077.72 617.92 1056.74 590.63 1041.11
  Q 580.16 1035.12 562.01 1026.04
  Q 561.93 1026.00 513.18 1002.32
  Q 445.94 969.65 390.42 919.09
  Q 368.81 899.42 350.35 876.80
  A 0.93 0.92 48.5 0 1 350.42 875.54
  Q 350.98 875.00 352.00 874.68
  Q 363.48 871.03 374.43 868.09
  Z"
/>
</g>
<g fill="#24365d">
<path d="
  M 1228.77 790.73
  Q 1213.64 788.23 1198.63 785.19
  Q 1188.17 783.07 1181.01 782.15
  Q 1171.02 780.87 1163.26 780.14
  A 1.95 1.95 0.0 0 1 1161.54 778.59
  Q 1153.90 740.83 1138.38 704.62
  Q 1135.87 698.75 1129.05 684.16
  Q 1114.81 653.70 1096.70 626.29
  Q 1077.57 597.35 1056.95 571.79
  Q 1050.51 563.80 1041.27 553.98
  Q 1016.92 528.07 994.02 507.73
  Q 987.48 501.92 971.10 488.91
  Q 937.01 461.81 900.52 440.75
  Q 875.15 426.10 842.54 412.01
  Q 835.34 408.89 830.81 407.36
  C 825.62 405.60 820.93 403.35 814.99 401.44
  Q 796.33 395.46 788.43 393.33
  Q 753.40 383.87 717.50 381.43
  Q 705.91 380.65 693.00 381.20
  Q 667.01 382.31 640.71 387.97
  C 604.94 395.66 570.40 408.18 537.82 424.10
  Q 517.59 433.98 495.04 447.27
  Q 476.14 458.40 454.60 474.27
  Q 431.26 491.46 409.54 510.28
  Q 400.47 518.14 381.09 537.34
  Q 369.36 548.97 358.07 561.36
  Q 349.16 571.12 337.18 587.24
  Q 312.55 620.37 297.91 644.88
  Q 285.64 665.43 271.39 696.41
  Q 253.84 734.56 245.12 777.69
  Q 244.65 780.01 241.88 780.20
  C 234.39 780.71 227.07 781.49 217.70 783.30
  Q 198.94 786.93 181.68 790.13
  Q 179.56 790.52 177.54 790.67
  Q 180.95 762.06 188.31 734.18
  Q 191.05 723.78 194.61 712.91
  C 197.68 703.54 200.28 694.22 203.67 684.76
  Q 221.49 635.03 247.17 586.92
  Q 256.47 569.50 265.45 553.93
  Q 303.06 488.65 352.50 433.75
  Q 363.51 421.52 379.76 404.35
  Q 386.04 397.73 394.37 389.80
  C 408.88 375.99 422.39 362.95 437.10 350.36
  Q 453.78 336.09 478.34 317.37
  Q 510.57 292.81 549.29 271.57
  Q 588.79 249.92 633.34 237.62
  C 662.57 229.55 691.71 225.94 722.36 228.21
  Q 744.31 229.83 770.12 236.73
  Q 803.97 245.77 834.52 260.00
  C 868.27 275.72 900.48 296.38 930.81 319.45
  Q 990.60 364.93 1041.32 419.93
  Q 1051.97 431.49 1067.04 448.95
  C 1087.61 472.77 1107.06 500.38 1125.08 527.71
  C 1129.37 534.22 1133.48 541.75 1137.68 548.78
  Q 1158.84 584.21 1177.17 623.55
  Q 1191.20 653.65 1201.04 680.92
  Q 1208.27 700.94 1217.86 733.38
  C 1219.16 737.80 1220.59 746.17 1222.70 753.50
  C 1223.38 755.84 1223.46 758.08 1224.13 760.83
  Q 1227.74 775.54 1228.77 790.73
  Z"
/>
<path d="
  M 1165.53 798.53
  Q 1170.55 799.09 1183.56 801.04
  C 1199.66 803.44 1216.14 807.71 1230.54 810.01
  A 1.84 1.83 7.3 0 1 1232.07 811.99
  C 1229.20 841.96 1220.01 871.78 1206.59 898.45
  Q 1202.88 905.81 1197.74 913.56
  A 1.80 1.79 31.3 0 1 1195.37 914.13
  Q 1175.27 902.90 1154.98 893.16
  A 1.54 1.53 -67.3 0 1 1154.20 891.26
  Q 1170.64 846.75 1164.43 799.65
  A 1.00 1.00 0.0 0 1 1165.53 798.53
  Z"
/>
<path d="
  M 240.60 798.51
  A 1.00 1.00 0.0 0 1 241.70 799.63
  Q 235.64 846.76 252.23 891.23
  A 1.54 1.53 67.1 0 1 251.46 893.14
  Q 231.19 902.94 211.12 914.24
  A 1.80 1.79 -31.5 0 1 208.75 913.68
  Q 203.58 905.94 199.85 898.59
  C 186.34 871.96 177.05 842.16 174.08 812.19
  A 1.84 1.83 -7.5 0 1 175.61 810.20
  C 190.00 807.86 206.48 803.53 222.57 801.08
  Q 235.58 799.09 240.60 798.51
  Z"
/>
<path d="
  M 610.04 1169.32
  A 1.71 1.70 -81.9 0 1 608.25 1170.67
  C 598.35 1169.91 586.33 1168.99 575.89 1167.70
  C 556.95 1165.35 544.35 1164.40 528.75 1161.73
  Q 501.55 1157.07 489.68 1154.32
  Q 486.10 1153.50 469.50 1149.06
  Q 467.02 1148.40 462.80 1148.93
  C 455.56 1149.85 450.04 1157.64 450.70 1164.65
  Q 451.50 1173.18 456.67 1178.52
  Q 458.54 1180.45 464.94 1182.58
  Q 478.70 1187.17 495.76 1190.49
  Q 532.94 1197.73 551.26 1199.98
  Q 580.07 1203.52 607.40 1205.22
  A 1.69 1.68 -3.8 0 1 608.95 1206.57
  L 611.02 1216.91
  A 1.04 1.03 -13.9 0 1 610.30 1218.10
  Q 585.79 1225.56 581.51 1226.91
  Q 565.72 1231.90 554.72 1234.08
  Q 523.71 1240.22 511.12 1241.85
  Q 485.29 1245.19 453.58 1244.79
  C 428.93 1244.48 405.51 1241.00 382.02 1235.46
  C 371.28 1232.92 361.10 1229.43 350.90 1225.41
  Q 345.24 1223.19 341.93 1221.64
  Q 322.37 1212.50 310.18 1204.80
  Q 298.86 1197.66 294.82 1193.40
  C 291.96 1190.38 292.35 1186.64 292.77 1181.65
  Q 293.63 1171.39 296.47 1161.99
  A 1.59 1.59 0.0 0 1 298.75 1161.04
  C 311.99 1168.22 323.43 1172.46 338.99 1178.24
  Q 361.83 1186.71 382.52 1190.71
  C 392.55 1192.65 400.90 1191.75 405.16 1181.39
  Q 408.08 1174.28 405.14 1167.13
  C 402.78 1161.39 398.29 1158.39 392.00 1157.28
  Q 375.72 1154.42 363.48 1150.49
  Q 352.22 1146.88 327.25 1136.19
  C 323.43 1134.55 319.48 1132.30 314.58 1129.90
  Q 299.43 1122.49 286.00 1111.00
  C 279.39 1105.34 275.95 1099.99 270.81 1091.22
  Q 265.69 1082.50 265.67 1073.24
  C 265.63 1060.45 271.07 1047.65 278.00 1037.00
  A 1.47 1.47 0.0 0 1 280.05 1036.58
  Q 289.13 1042.71 304.30 1053.13
  Q 314.64 1060.23 328.76 1067.85
  C 356.67 1082.91 386.53 1097.03 416.13 1107.85
  Q 424.60 1110.95 452.72 1120.25
  Q 471.92 1126.59 493.13 1131.37
  Q 498.76 1132.64 502.99 1133.06
  C 512.19 1133.98 519.90 1129.39 521.27 1120.01
  C 521.64 1117.44 522.11 1115.71 521.68 1113.61
  Q 519.34 1102.19 507.32 1099.17
  Q 475.98 1091.31 463.01 1087.20
  C 429.09 1076.46 396.07 1063.05 364.13 1046.89
  Q 339.08 1034.22 317.52 1020.24
  Q 310.32 1015.57 289.87 1000.91
  C 275.77 990.80 263.03 978.50 250.75 967.00
  Q 240.40 957.31 233.69 949.04
  Q 227.25 941.10 220.17 931.61
  A 1.74 1.74 0.0 0 1 220.75 929.03
  L 258.64 909.26
  A 2.36 2.34 56.3 0 1 261.54 909.85
  C 263.09 911.74 264.54 914.72 266.26 917.30
  Q 275.91 931.77 288.66 945.09
  C 297.75 954.59 307.57 961.98 318.16 969.46
  Q 344.33 987.94 374.24 1000.53
  Q 391.38 1007.75 410.75 1014.01
  Q 439.44 1023.29 478.25 1033.50
  Q 486.35 1035.63 506.77 1041.99
  Q 522.15 1046.78 534.75 1052.10
  Q 577.18 1070.03 612.22 1099.67
  Q 620.30 1106.50 624.03 1110.49
  Q 628.26 1115.02 634.56 1122.39
  A 1.21 1.20 48.7 0 1 634.45 1124.08
  C 629.80 1128.24 626.59 1132.65 622.91 1138.39
  Q 613.51 1153.05 610.04 1169.32
  Z"
/>
<path d="
  M 1124.27 1107.23
  C 1116.58 1115.42 1107.60 1121.62 1099.18 1125.92
  Q 1091.51 1129.83 1086.59 1132.58
  Q 1083.45 1134.33 1074.60 1137.76
  A 1.37 1.35 13.4 0 0 1074.17 1138.02
  Q 1073.38 1138.70 1069.29 1140.45
  Q 1054.04 1146.98 1031.36 1153.64
  C 1019.19 1157.21 1015.07 1171.06 1022.61 1181.22
  C 1027.57 1187.91 1036.77 1188.07 1044.31 1185.79
  Q 1076.42 1176.09 1104.22 1162.72
  Q 1106.28 1161.73 1108.47 1160.37
  A 0.89 0.89 0.0 0 1 1109.81 1160.94
  Q 1110.67 1164.78 1112.53 1171.46
  Q 1114.06 1176.97 1114.49 1187.44
  A 4.19 4.17 -32.8 0 1 1114.03 1189.54
  C 1111.17 1195.09 1105.30 1199.32 1099.93 1202.67
  Q 1085.45 1211.70 1069.73 1219.46
  Q 1057.00 1225.74 1045.60 1229.55
  Q 1032.80 1233.83 1015.44 1237.79
  Q 1008.93 1239.27 1004.50 1239.87
  C 1000.00 1240.49 995.19 1241.59 989.84 1242.32
  Q 973.95 1244.49 952.51 1244.77
  Q 922.30 1245.16 897.89 1242.11
  Q 883.40 1240.29 849.34 1233.53
  Q 839.46 1231.57 825.49 1227.10
  Q 810.26 1222.23 796.19 1218.17
  A 1.56 1.55 -75.2 0 1 795.11 1216.31
  L 797.63 1206.13
  A 1.15 1.15 0.0 0 1 798.66 1205.26
  Q 852.10 1201.99 906.13 1191.37
  Q 921.62 1188.32 938.56 1183.81
  C 946.09 1181.80 952.73 1178.51 955.63 1170.88
  Q 956.98 1167.31 956.46 1163.35
  Q 955.00 1152.27 944.61 1148.94
  Q 940.49 1147.62 937.04 1148.53
  C 930.27 1150.31 920.25 1153.53 912.49 1155.10
  Q 875.82 1162.54 857.61 1164.58
  C 830.63 1167.59 813.23 1169.35 797.50 1170.38
  A 0.93 0.92 81.8 0 1 796.53 1169.65
  Q 793.58 1156.27 786.42 1143.80
  Q 778.29 1129.64 772.52 1124.56
  C 770.88 1123.12 771.76 1121.87 772.97 1120.47
  Q 780.19 1112.10 787.15 1105.91
  C 802.19 1092.52 817.48 1080.71 835.08 1070.58
  C 853.43 1060.03 872.07 1050.93 892.16 1044.41
  Q 905.59 1040.05 917.27 1036.51
  Q 922.22 1035.00 942.69 1029.63
  Q 966.67 1023.34 993.17 1014.88
  Q 1013.26 1008.47 1031.73 1000.69
  Q 1061.49 988.17 1088.74 969.27
  Q 1123.18 945.38 1145.41 909.65
  A 1.47 1.47 0.0 0 1 1147.34 909.12
  L 1185.95 929.21
  A 1.33 1.33 0.0 0 1 1186.42 931.15
  Q 1183.19 935.77 1174.13 947.85
  Q 1171.61 951.22 1163.31 959.32
  Q 1145.71 976.50 1130.90 989.89
  Q 1128.87 991.72 1123.37 995.86
  Q 1110.25 1005.71 1092.29 1018.09
  Q 1078.87 1027.34 1059.67 1037.95
  Q 1022.66 1058.40 983.93 1073.13
  Q 944.15 1088.27 905.51 1097.74
  Q 896.26 1100.00 894.61 1100.80
  Q 885.41 1105.26 884.65 1114.99
  C 884.13 1121.67 887.64 1129.57 894.45 1131.99
  C 899.88 1133.92 905.98 1133.21 910.99 1132.12
  Q 929.73 1128.04 955.73 1119.67
  C 981.52 1111.37 1008.06 1101.91 1032.40 1090.43
  C 1052.43 1080.99 1071.28 1072.26 1089.60 1060.83
  Q 1110.73 1047.66 1122.75 1038.71
  Q 1124.03 1037.76 1125.86 1036.40
  A 1.91 1.91 0.0 0 1 1128.68 1037.03
  Q 1132.90 1044.88 1133.63 1046.36
  C 1140.00 1059.21 1143.81 1073.98 1137.13 1087.11
  C 1132.72 1095.77 1130.29 1100.82 1124.27 1107.23
  Z"
/>
</g>
<g fill="#f39268">
<path d="
  M 216.13 197.25
  Q 262.04 230.79 284.34 282.94
  Q 292.10 301.11 296.53 321.98
  C 300.20 339.24 301.56 357.92 297.84 375.08
  C 294.12 392.25 286.82 411.06 280.95 428.73
  Q 278.74 435.36 279.69 439.40
  Q 266.83 458.20 253.57 477.82
  Q 245.81 489.29 239.39 499.66
  A 0.82 0.81 52.3 0 1 237.92 499.47
  C 231.35 477.96 223.60 452.53 218.80 430.66
  C 208.52 383.81 202.87 338.00 204.02 290.51
  Q 205.16 243.26 216.13 197.25
  Z"
/>
<path d="
  M 1190.23 197.25
  Q 1201.64 245.71 1202.37 290.38
  Q 1203.13 336.79 1196.19 382.73
  Q 1192.62 406.34 1187.58 430.01
  C 1183.75 448.01 1178.04 466.47 1172.25 487.25
  Q 1170.23 494.52 1168.11 499.82
  A 0.51 0.51 0.0 0 1 1167.20 499.90
  Q 1147.09 467.72 1125.46 437.57
  Q 1125.73 427.89 1121.93 417.57
  Q 1116.54 402.93 1112.01 386.74
  Q 1107.50 370.66 1106.97 356.27
  Q 1105.76 323.64 1117.42 294.15
  Q 1120.42 286.57 1124.90 276.60
  C 1135.55 252.89 1151.33 231.63 1170.52 213.77
  Q 1175.67 208.98 1183.81 202.30
  Q 1186.84 199.81 1190.23 197.25
  Z"
/>
</g>
<path fill="#445884" d="
  M 1228.77 790.73
  Q 1227.74 775.54 1224.13 760.83
  C 1223.46 758.08 1223.38 755.84 1222.70 753.50
  C 1220.59 746.17 1219.16 737.80 1217.86 733.38
  Q 1208.27 700.94 1201.04 680.92
  Q 1191.20 653.65 1177.17 623.55
  Q 1158.84 584.21 1137.68 548.78
  C 1133.48 541.75 1129.37 534.22 1125.08 527.71
  C 1107.06 500.38 1087.61 472.77 1067.04 448.95
  Q 1051.97 431.49 1041.32 419.93
  Q 990.60 364.93 930.81 319.45
  C 900.48 296.38 868.27 275.72 834.52 260.00
  Q 803.97 245.77 770.12 236.73
  Q 744.31 229.83 722.36 228.21
  C 691.71 225.94 662.57 229.55 633.34 237.62
  Q 588.79 249.92 549.29 271.57
  Q 510.57 292.81 478.34 317.37
  Q 453.78 336.09 437.10 350.36
  C 422.39 362.95 408.88 375.99 394.37 389.80
  Q 386.04 397.73 379.76 404.35
  Q 363.51 421.52 352.50 433.75
  Q 303.06 488.65 265.45 553.93
  Q 256.47 569.50 247.17 586.92
  Q 221.49 635.03 203.67 684.76
  C 200.28 694.22 197.68 703.54 194.61 712.91
  Q 191.05 723.78 188.31 734.18
  Q 180.95 762.06 177.54 790.67
  L 174.48 791.43
  A 0.66 0.66 0.0 0 1 173.66 790.75
  Q 174.70 771.88 177.99 753.00
  Q 184.25 717.09 193.78 685.76
  C 201.13 661.61 207.97 640.68 217.48 618.98
  Q 222.47 607.61 228.98 593.35
  Q 242.07 564.72 256.72 539.48
  Q 269.56 517.37 282.98 496.45
  Q 295.05 477.64 311.93 455.20
  Q 338.10 420.43 371.72 384.73
  Q 394.12 360.95 408.54 347.98
  Q 418.80 338.75 424.37 333.45
  Q 430.57 327.56 440.55 319.30
  C 458.45 304.49 479.54 287.69 499.23 274.54
  Q 526.33 256.46 549.49 244.27
  Q 584.44 225.86 624.07 214.06
  Q 655.23 204.78 681.12 202.54
  Q 710.69 199.97 739.25 204.23
  C 766.95 208.36 791.11 215.98 817.99 226.37
  Q 839.18 234.56 860.10 245.92
  Q 898.36 266.70 932.09 292.43
  Q 955.45 310.25 973.83 326.19
  Q 989.41 339.69 1012.21 361.79
  Q 1030.61 379.63 1054.95 407.04
  C 1084.65 440.48 1111.64 476.54 1134.76 514.85
  C 1146.54 534.39 1157.43 552.68 1166.51 570.98
  Q 1169.86 577.72 1181.42 602.57
  Q 1193.13 627.73 1205.85 665.89
  C 1210.97 681.25 1216.57 699.22 1220.14 714.82
  C 1222.42 724.75 1227.27 745.26 1229.23 759.58
  Q 1231.36 775.04 1232.50 791.10
  A 0.56 0.55 -83.3 0 1 1231.78 791.67
  L 1228.77 790.73
  Z"
/>
<ellipse fill="#caa148" cx="0.00" cy="0.00" transform="translate(703.23,1191.26) rotate(-86.8)" rx="64.44" ry="64.21"/>
<g fill="#d8603e">
<path d="
  M 279.69 439.40
  Q 278.74 435.36 280.95 428.73
  C 286.82 411.06 294.12 392.25 297.84 375.08
  C 301.56 357.92 300.20 339.24 296.53 321.98
  Q 292.10 301.11 284.34 282.94
  Q 262.04 230.79 216.13 197.25
  L 223.13 171.75
  A 0.29 0.29 0.0 0 1 223.60 171.60
  C 240.86 185.49 257.23 200.02 272.67 216.14
  C 288.92 233.10 303.43 249.07 317.28 267.48
  Q 342.87 301.48 364.73 337.06
  C 365.94 339.01 365.50 340.17 364.04 341.88
  C 362.54 343.65 360.71 345.92 359.12 347.51
  Q 340.47 366.21 333.42 374.41
  Q 320.27 389.69 309.83 401.34
  Q 301.38 410.76 279.69 439.40
  Z"
/>
<path d="
  M 1190.23 197.25
  Q 1186.84 199.81 1183.81 202.30
  Q 1175.67 208.98 1170.52 213.77
  C 1151.33 231.63 1135.55 252.89 1124.90 276.60
  Q 1120.42 286.57 1117.42 294.15
  Q 1105.76 323.64 1106.97 356.27
  Q 1107.50 370.66 1112.01 386.74
  Q 1116.54 402.93 1121.93 417.57
  Q 1125.73 427.89 1125.46 437.57
  Q 1114.51 423.72 1103.89 410.61
  Q 1075.90 376.08 1044.60 344.16
  Q 1042.71 342.23 1041.30 340.16
  A 1.98 1.95 -49.7 0 1 1041.15 338.20
  Q 1042.43 335.47 1044.73 331.74
  Q 1068.16 293.70 1094.17 260.66
  Q 1110.36 240.09 1131.79 217.78
  Q 1156.42 192.15 1182.59 171.57
  A 0.36 0.36 0.0 0 1 1183.16 171.76
  L 1190.23 197.25
  Z"
/>
</g>
<g fill="#fdb971">
<path d="
  M 437.23 276.62
  Q 436.63 275.54 436.85 274.17
  A 1.46 1.42 35.1 0 0 436.68 273.26
  C 434.32 268.97 430.97 266.00 426.74 262.02
  Q 425.83 261.17 406.92 243.33
  Q 392.43 229.66 370.78 214.72
  Q 366.64 211.86 352.07 202.70
  Q 340.27 195.28 329.71 190.09
  C 317.45 184.07 300.39 177.84 289.39 172.88
  Q 282.12 169.60 276.43 165.93
  A 2.24 2.23 -18.7 0 0 275.94 165.69
  L 272.53 164.52
  A 1.22 1.21 -42.6 0 0 271.80 164.49
  L 269.75 165.06
  L 259.73 156.83
  A 0.46 0.46 0.0 0 1 260.05 156.02
  Q 262.16 156.13 264.00 156.51
  Q 317.91 167.58 366.74 193.74
  C 400.76 211.97 430.92 233.72 461.60 257.51
  A 0.26 0.25 45.5 0 1 461.60 257.92
  L 437.23 276.62
  Z"
/>
<path d="
  M 1136.20 165.48
  Q 1133.44 164.09 1130.42 165.97
  Q 1123.21 170.47 1115.90 173.43
  Q 1098.04 180.66 1080.36 188.65
  Q 1068.60 193.96 1056.87 201.25
  C 1046.68 207.59 1042.94 209.95 1034.11 215.86
  Q 1015.62 228.25 1002.12 240.63
  Q 988.64 252.99 981.90 259.44
  C 979.00 262.23 977.48 264.07 974.94 266.34
  C 973.04 268.05 971.45 270.52 969.94 272.64
  A 1.10 1.10 0.0 0 0 970.06 274.04
  Q 972.31 276.33 970.55 277.17
  L 944.76 257.95
  A 0.41 0.40 -46.1 0 1 944.75 257.31
  Q 978.10 230.66 1013.89 208.42
  C 1049.42 186.35 1088.03 169.46 1129.13 159.38
  Q 1137.69 157.28 1144.76 156.02
  Q 1145.44 155.90 1146.06 156.03
  A 0.49 0.48 -59.3 0 1 1146.27 156.87
  L 1136.20 165.48
  Z"
/>
</g>
</svg>
